<!DOCTYPE svg PUBLIC "-//W3C//DTD SVG 1.1//EN" "http://www.w3.org/Graphics/SVG/1.1/DTD/svg11.dtd">
<!-- Uploaded to: SVG Repo, www.svgrepo.com, Transformed by: SVG Repo Mixer Tools -->
<svg version="1.1" id="Uploaded to svgrepo.com" xmlns="http://www.w3.org/2000/svg" xmlns:xlink="http://www.w3.org/1999/xlink" width="800px" height="800px" viewBox="0 0 32 32" xml:space="preserve" fill="#000000">
<g id="SVGRepo_bgCarrier" stroke-width="0"/>
<g id="SVGRepo_tracerCarrier" stroke-linecap="round" stroke-linejoin="round"/>
<g id="SVGRepo_iconCarrier"> <style type="text/css"> .feather_een{fill:#8D1C06;} </style> <path class="feather_een" d="M16.5,11.5c-1.105,0-2,0.895-2,2s0.895,2,2,2c1.105,0,2-0.895,2-2S17.605,11.5,16.5,11.5z M16.5,14.5 c-0.551,0-1-0.449-1-1s0.449-1,1-1s1,0.449,1,1S17.051,14.5,16.5,14.5z M27.709,19.867l-4.216-3.654l-0.51-2.803 c-0.09-0.497-0.326-1.052-0.642-1.627l5.367-4.651c0.439-0.38,0.463-1.052,0.052-1.463L24.33,2.238 c-0.41-0.41-1.083-0.386-1.463,0.052l-4.189,4.834c-0.577-0.6-1.104-1.115-1.495-1.488c-0.385-0.366-0.983-0.366-1.367,0 c-0.391,0.373-0.918,0.888-1.495,1.488l-4.189-4.833C9.752,1.852,9.08,1.828,8.669,2.239L5.238,5.67 c-0.41,0.41-0.386,1.083,0.052,1.463l5.367,4.652c-0.315,0.576-0.551,1.13-0.642,1.627l-0.51,2.803l-4.216,3.654 c-0.439,0.38-0.463,1.052-0.052,1.463l2.824,2.824l-0.634,3.487C7.205,28.87,8.149,30,9.396,30h14.207 c1.248,0,2.191-1.13,1.968-2.358l-0.634-3.488l2.824-2.824C28.172,20.92,28.148,20.248,27.709,19.867z M16.5,6.36 c0.445,0.422,0.974,0.945,1.524,1.52L16.5,9.638L14.976,7.88C15.526,7.306,16.055,6.782,16.5,6.36z M17,29h-2v-4h2V29z M23.604,29 H18v-4c0-0.552-0.448-1-1-1h-2c-0.552,0-1,0.448-1,1v4H9.396c-0.624,0-1.095-0.565-0.983-1.179l0.526-2.884 c0.396,0.196,0.887,0.126,1.194-0.227l6.368-7.347l6.368,7.347c0.307,0.354,0.799,0.424,1.195,0.226l0.525,2.885 C24.699,28.435,24.227,29,23.604,29z M23.623,24.054L16.5,15.835l-7.123,8.219l-3.431-3.431l8.219-7.123L5.946,6.377l3.431-3.431 l7.123,8.219l7.123-8.219l3.431,3.431L18.835,13.5l8.219,7.123L23.623,24.054z M10.713,15.169L11,13.59 c0.062-0.342,0.217-0.73,0.426-1.14l1.212,1.05L10.713,15.169z M22.287,15.168L20.362,13.5l1.212-1.05 c0.209,0.41,0.364,0.798,0.426,1.141L22.287,15.168z"/> </g>
</svg>